<?xml version="1.0" encoding="UTF-8" standalone="no"?>
<!-- Created with Inkscape (http://www.inkscape.org/) -->

<svg
   width="270.93332mm"
   height="270.93332mm"
   viewBox="0 0 270.93332 270.93332"
   version="1.1"
   id="svg1"
   xml:space="preserve"
   sodipodi:docname="app_icon.svg"
   inkscape:version="1.4.2 (ebf0e940d0, 2025-05-08)"
   inkscape:export-filename="app_icon.png"
   inkscape:export-xdpi="48"
   inkscape:export-ydpi="48"
   xmlns:inkscape="http://www.inkscape.org/namespaces/inkscape"
   xmlns:sodipodi="http://sodipodi.sourceforge.net/DTD/sodipodi-0.dtd"
   xmlns="http://www.w3.org/2000/svg"
   xmlns:svg="http://www.w3.org/2000/svg"><sodipodi:namedview
     id="namedview1"
     pagecolor="#ffffff"
     bordercolor="#000000"
     borderopacity="0.25"
     inkscape:showpageshadow="2"
     inkscape:pageopacity="0.0"
     inkscape:pagecheckerboard="0"
     inkscape:deskcolor="#d1d1d1"
     inkscape:document-units="mm"
     inkscape:zoom="0.5"
     inkscape:cx="368"
     inkscape:cy="509"
     inkscape:window-width="1920"
     inkscape:window-height="1008"
     inkscape:window-x="0"
     inkscape:window-y="0"
     inkscape:window-maximized="1"
     inkscape:current-layer="layer1" /><defs
     id="defs1" /><g
     inkscape:label="Layer 1"
     inkscape:groupmode="layer"
     id="layer1"><path
       id="path4"
       style="fill:#34495e;stroke:none;stroke-width:1.80131;stroke-dasharray:none;stroke-opacity:1;fill-opacity:1"
       d="M 135.46759,11.170003 C 120.43482,44.575927 1.906598,53.141752 1.906598,53.141752 67.525379,125.68659 36.89054,177.2528 135.46759,261.28618 234.04464,177.2528 203.40871,125.68659 269.02752,53.141752 c 0,0 -118.52714,-8.565825 -133.55993,-41.971749 z" /><g
       id="g9"
       transform="matrix(1.0839723,0,0,1.0754692,-15.099076,8.8738039)"
       style="stroke-width:0.926173"><g
         id="g1"
         transform="matrix(0.03112955,0,0,0.03112955,50.309396,38.590662)"
         style="stroke-width:1.33086"><path
           d="m 2499.6,1250 c 0,690.2 -559.6,1249.8 -1250.1,1249.9 C 559.5,2499.9 -0.1,1940.2 0,1249.9 -0.2,559.6 559.4,0 1249.7,0 1940,0 2499.6,559.7 2499.6,1250 Z"
           fill="#eab300"
           id="path1"
           style="stroke-width:1.33086" /><g
           fill="#ffffff"
           id="g3"
           style="stroke-width:1.33086"><path
             d="M 1741.5,943.8 C 1725.4,776.4 1580.9,720.3 1398.3,704.3 V 472 H 1257 v 226.1 c -37.1,0 -75.1,0.7 -112.8,1.5 V 472 h -141.3 l -0.1,232.1 c -30.6,0.6 -60.7,1.2 -90,1.2 v -0.7 l -194.9,-0.1 v 151 c 0,0 104.4,-2 102.6,-0.1 57.3,0 75.9,33.2 81.3,61.9 v 264.6 c 4,0 9.1,0.2 14.9,1 h -14.9 l -0.1,370.7 c -2.5,18 -13.1,46.7 -53.1,46.8 1.8,1.6 -102.7,0 -102.7,0 l -28.1,168.8 h 184 c 34.2,0 67.9,0.6 100.9,0.8 l 0.1,234.9 H 1144 v -232.4 c 38.7,0.8 76.2,1.1 112.9,1.1 l -0.1,231.3 h 141.3 v -234.4 c 237.6,-13.6 404.1,-73.5 424.7,-296.7 16.7,-179.7 -67.8,-260 -202.7,-292.4 82.1,-41.6 133.4,-115.1 121.4,-237.6 z M 1543.7,1446 c 0,175.5 -300.5,155.6 -396.4,155.6 v -311.3 c 95.9,0.2 396.4,-27.3 396.4,155.7 z m -65.8,-439.1 c 0,159.7 -250.8,141 -330.6,141.1 V 865.8 c 79.9,0 330.7,-25.4 330.6,141.1 z"
             id="path2"
             style="stroke-width:1.33086" /><path
             d="m 902,1175.7 h 21 v 15.5 h -21 z"
             id="path3"
             style="stroke-width:1.33086" /></g></g><path
         d="M 126.00414,68.673049 V 86.33215 h 62.81115 v 11.415813 h 5.56555 V 86.33215 h 3.13728 v 7.583042 h 5.56607 V 86.33215 h 3.73878 v 9.331035 h 5.36299 V 86.33215 h 3.07113 l 14.76033,-8.829178 -14.76033,-8.829923 z"
         style="fill:#eab300;fill-opacity:1;stroke:none;stroke-width:1.31507"
         id="path9" /></g></g></svg>
